# xmcd
#
# Track frame offsets:
#	150
#	13693
#	33537
#	51031
#	64351
#	78698
#	92157
#	104528
#	122811
#	140314
#	156762
#
# Disc length: 2232 seconds
#
# Revision: 1
# Processed by: cddbd v1.5.2PL0 Copyright (c) Steve Scherf et al.
# Submitted via: audiograbber 1.83.01
#
DISCID=9608b60b
DTITLE=Karree J. Phillips - Pieces of my heart
DYEAR=2008
DGENRE=
TTITLE0=Treasures of love
TTITLE1=Everything but a Daddy (Feat. Savannah-Rose Phillips)
TTITLE2=Seven Spanish Angels
TTITLE3=Safe
TTITLE4=Some days are Diamonds
TTITLE5=Lousy day
TTITLE6=Married man
TTITLE7=Gentle hands
TTITLE8=French song
TTITLE9=Momma's got a thing
TTITLE10=Save the Peace River (Bonus track)
EXTD=
EXTT0=
EXTT1=
EXTT2=
EXTT3=
EXTT4=
EXTT5=
EXTT6=
EXTT7=
EXTT8=
EXTT9=
EXTT10=
PLAYORDER=
